<svg id="Layer_1" data-name="Layer 1" xmlns="http://www.w3.org/2000/svg" viewBox="0 0 503.56 366.24"><defs><style>.cls-1{fill:#d8d8d8;}.cls-2{fill:#0065bd;}.cls-3{fill:#007ee9;}.cls-4{fill:#3f3d56;}.cls-5{fill:#2f2e41;}.cls-6{fill:#ffb6b6;}.cls-7{fill:#fff;}.cls-8{opacity:0.2;isolation:isolate;}.cls-10,.cls-11,.cls-12,.cls-14,.cls-15,.cls-9{fill:none;}.cls-9{stroke:#0065bd;stroke-width:2.13px;}.cls-10,.cls-9{stroke-miterlimit:10;}.cls-10,.cls-11,.cls-12{stroke:#fff;}.cls-10{stroke-width:2.36px;}.cls-11{stroke-miterlimit:10;}.cls-11,.cls-12{stroke-width:2.36px;}.cls-12{stroke-miterlimit:10;}.cls-13{fill:#61dafb;}.cls-14,.cls-15{stroke:#61dafb;}.cls-14{stroke-width:1.84px;}.cls-15{stroke-width:1.84px;}</style></defs><circle class="cls-1" cx="293.33" cy="47.48" r="17.09"/><path class="cls-1" d="M1134.25,674.44c25.4-19.35,37.53-51.86,29.94-82.87q-.29-1.16-.6-2.31c-5-18.41-17.49-35.9-35.65-41.78-15.24-4.94-31.88-1.14-47.78-3.11-31.22-3.85-55.43-29.11-72.46-55.56S977.58,432.75,955,410.9c-37.3-36-98.15-43.77-144.4-20.32S734.84,466,736.1,517.87s32,101.4,76.72,127.69c16.41,9.66,35.4,16.5,54.3,14.11,16.4-2.08,31.29-10.89,47.61-13.51,25.66-4.11,51.16,7.49,73.35,21s43.63,29.54,68.85,35.81C1081.42,709.07,1111.75,691.58,1134.25,674.44Z" transform="translate(-708.37 -356.26)"/><path class="cls-2" d="M1097.76,391.67c-.56-.38-1.12-.73-1.68-1.09a243.28,243.28,0,0,0-51.4-24.91l-4.18,57.74H1014V357.24c-1.67-.35-3.35-.67-5-1v67.15H977.39A65.45,65.45,0,0,1,911.94,358h0c-1.69.36-3.36.75-5,1.17v64.28H881.22l-4-55.06a243.52,243.52,0,0,0-52.44,27.86c-.29.19-.57.39-.84.58-1.42,1-2.81,2-4.2,3V620.1h75.69l-1.34-18.53-7.36-101.73H1035l-7.36,101.73-1.34,18.53h74.86V393.89C1100,393.14,1098.89,392.39,1097.76,391.67ZM906.9,483H885.53l-3.95-54.59H906.9Zm102,0H973V482a4,4,0,0,0-4-3.95H953.47a4,4,0,0,0-4,3.95h0V483H911.94V428.45h97Zm5,0V428.45h26.17l-4,54.59Z" transform="translate(-708.37 -356.26)"/><path class="cls-3" d="M708.37,634.21a185.07,185.07,0,0,0,18,18.52l467.57.64a184.07,184.07,0,0,0,18-18.52Z" transform="translate(-708.37 -356.26)"/><path class="cls-4" d="M1025.44,574.88v54.85a2.64,2.64,0,0,0,2.64,2.64h81.28a2.64,2.64,0,0,0,2.64-2.64V574.88a2.64,2.64,0,0,0-2.64-2.63h-81.28A2.64,2.64,0,0,0,1025.44,574.88Z" transform="translate(-708.37 -356.26)"/><path class="cls-2" d="M1027.35,575.56v53.49a1.41,1.41,0,0,0,1.41,1.41h79.92a1.41,1.41,0,0,0,1.41-1.41V575.56a1.41,1.41,0,0,0-1.41-1.41h-79.92A1.41,1.41,0,0,0,1027.35,575.56Z" transform="translate(-708.37 -356.26)"/><path class="cls-5" d="M1023.74,640.43a1.58,1.58,0,0,0,1.25.59h87a1.6,1.6,0,0,0,1.6-1.6,1.84,1.84,0,0,0,0-.33l-1.36-6.42a1.58,1.58,0,0,0-1-1.16,1.6,1.6,0,0,0-.57-.11h-84.34a1.6,1.6,0,0,0-.57.11,1.58,1.58,0,0,0-1,1.16l-1.36,6.42A1.66,1.66,0,0,0,1023.74,640.43Z" transform="translate(-708.37 -356.26)"/><rect class="cls-4" x="399" y="276.3" width="2.68" height="1.61" rx="0.31"/><rect class="cls-4" x="393.64" y="276.3" width="2.68" height="1.61" rx="0.31"/><rect class="cls-4" x="388.28" y="276.3" width="2.68" height="1.61" rx="0.31"/><rect class="cls-4" x="382.92" y="276.3" width="2.68" height="1.61" rx="0.31"/><rect class="cls-4" x="377.56" y="276.3" width="2.68" height="1.61" rx="0.31"/><rect class="cls-4" x="372.2" y="276.3" width="2.68" height="1.61" rx="0.31"/><rect class="cls-4" x="366.84" y="276.3" width="2.68" height="1.61" rx="0.31"/><rect class="cls-4" x="361.48" y="276.3" width="2.68" height="1.61" rx="0.31"/><rect class="cls-4" x="356.11" y="276.3" width="2.68" height="1.61" rx="0.31"/><rect class="cls-4" x="350.75" y="276.3" width="2.68" height="1.61" rx="0.31"/><rect class="cls-4" x="345.39" y="276.3" width="2.68" height="1.61" rx="0.31"/><rect class="cls-4" x="340.03" y="276.3" width="2.68" height="1.61" rx="0.31"/><rect class="cls-4" x="334.67" y="276.3" width="2.68" height="1.61" rx="0.31"/><rect class="cls-4" x="329.31" y="276.3" width="2.68" height="1.61" rx="0.31"/><rect class="cls-4" x="323.95" y="276.3" width="2.68" height="1.61" rx="0.31"/><rect class="cls-4" x="318.58" y="276.3" width="2.68" height="1.61" rx="0.31"/><rect class="cls-4" x="399.07" y="278.98" width="2.68" height="1.61" rx="0.31"/><rect class="cls-4" x="393.71" y="278.98" width="2.68" height="1.61" rx="0.31"/><rect class="cls-4" x="388.34" y="278.98" width="2.68" height="1.61" rx="0.31"/><rect class="cls-4" x="382.98" y="278.98" width="2.68" height="1.61" rx="0.31"/><rect class="cls-4" x="377.62" y="278.98" width="2.68" height="1.61" rx="0.31"/><rect class="cls-4" x="372.26" y="278.98" width="2.68" height="1.61" rx="0.31"/><rect class="cls-4" x="366.9" y="278.98" width="2.68" height="1.61" rx="0.31"/><rect class="cls-4" x="361.54" y="278.98" width="2.68" height="1.61" rx="0.31"/><rect class="cls-4" x="356.18" y="278.98" width="2.68" height="1.61" rx="0.31"/><rect class="cls-4" x="350.82" y="278.98" width="2.68" height="1.61" rx="0.31"/><rect class="cls-4" x="345.45" y="278.98" width="2.68" height="1.61" rx="0.31"/><rect class="cls-4" x="340.09" y="278.98" width="2.68" height="1.61" rx="0.31"/><rect class="cls-4" x="334.73" y="278.98" width="2.68" height="1.61" rx="0.31"/><rect class="cls-4" x="329.37" y="278.98" width="2.68" height="1.61" rx="0.31"/><rect class="cls-4" x="324.01" y="278.98" width="2.68" height="1.61" rx="0.31"/><rect class="cls-4" x="318.65" y="278.98" width="2.68" height="1.61" rx="0.31"/><rect class="cls-4" x="354.57" y="282.2" width="21.45" height="1.61" rx="0.31"/><path class="cls-6" d="M1031.51,670.17,1023,656.66l26.82-21.37L1060.86,623a12.27,12.27,0,0,1,17.32-.88,12.12,12.12,0,0,1,3.42,5.25h0a12.27,12.27,0,0,1-7.4,15.36l-17.5,6.45Z" transform="translate(-708.37 -356.26)"/><path class="cls-5" d="M831.05,572.25v65.64h46V572.25a2.2,2.2,0,0,0-1.55-2.11,2.17,2.17,0,0,0-.66-.11H833.27a2.21,2.21,0,0,0-2.22,2.22ZM849,594.8a4.91,4.91,0,0,1,9.82,0v7.62a4.91,4.91,0,0,1-9.82,0Z" transform="translate(-708.37 -356.26)"/><path class="cls-4" d="M830.91,635.79v6.33a1.24,1.24,0,0,0,1.23,1.24h43.8a1.24,1.24,0,0,0,1.23-1.24v-6.33Z" transform="translate(-708.37 -356.26)"/><path class="cls-4" d="M758.71,473.36V593.2a5.76,5.76,0,0,0,5.76,5.76h177.6a5.76,5.76,0,0,0,5.76-5.76V473.36a5.77,5.77,0,0,0-5.76-5.76H764.47A5.77,5.77,0,0,0,758.71,473.36Z" transform="translate(-708.37 -356.26)"/><path class="cls-7" d="M762.88,474.85V591.72A3.07,3.07,0,0,0,766,594.8H940.59a3.08,3.08,0,0,0,3.08-3.08V474.85a3.1,3.1,0,0,0-3.08-3.09H766A3.09,3.09,0,0,0,762.88,474.85Z" transform="translate(-708.37 -356.26)"/><path class="cls-5" d="M795.28,642.93a1.92,1.92,0,0,0,1.49.71h103.9a1.92,1.92,0,0,0,1.91-1.91,2.45,2.45,0,0,0,0-.39l-1.62-7.66a1.89,1.89,0,0,0-1.19-1.39,1.72,1.72,0,0,0-.68-.13H798.38a1.72,1.72,0,0,0-.68.13,1.89,1.89,0,0,0-1.19,1.39l-1.62,7.66A1.94,1.94,0,0,0,795.28,642.93Z" transform="translate(-708.37 -356.26)"/><path class="cls-2" d="M934.92,487.86H771.52a.65.65,0,0,1-.64-.66.66.66,0,0,1,.64-.64h163.4a.65.65,0,0,1,0,1.3Z" transform="translate(-708.37 -356.26)"/><ellipse class="cls-2" cx="74.27" cy="123.09" rx="3.81" ry="3.89"/><ellipse class="cls-2" cx="87.43" cy="123.09" rx="3.81" ry="3.89"/><ellipse class="cls-2" cx="100.58" cy="123.09" rx="3.81" ry="3.89"/><path class="cls-2" d="M927,476.42h-9.34a.7.7,0,0,0-.69.72.71.71,0,0,0,.69.7H927a.71.71,0,0,0,0-1.42Z" transform="translate(-708.37 -356.26)"/><path class="cls-2" d="M927,479.08h-9.34a.71.71,0,0,0,0,1.41H927a.71.71,0,0,0,0-1.41Z" transform="translate(-708.37 -356.26)"/><path class="cls-2" d="M927,481.73h-9.34a.71.71,0,0,0,0,1.42H927a.71.71,0,0,0,0-1.42Z" transform="translate(-708.37 -356.26)"/><path class="cls-5" d="M1152.27,638.57a4.11,4.11,0,0,0,4,2.77l17-.44a4.05,4.05,0,0,0,3.83-3l2.4-25.66a6.18,6.18,0,1,0,2.4-11.8,5.88,5.88,0,0,0-1.11.11,4.24,4.24,0,0,0-3.12-1.34l-26.08.67a4.81,4.81,0,0,0-.65.08,4.06,4.06,0,0,0-3.25,4.75,3.05,3.05,0,0,0,.14.54Zm27.63-28.05,1.71-6.11a4.27,4.27,0,0,0,0-2.16c.08,0,.16,0,.24,0a4.42,4.42,0,0,1,.2,8.84A4.1,4.1,0,0,1,1179.9,610.52Z" transform="translate(-708.37 -356.26)"/><path class="cls-4" d="M1150.85,600c.56,3.18,6.81,5.41,14.32,5,6.91-.31,12.55-2.74,13.59-5.61a3.62,3.62,0,0,0-1.18-.16l-26.08.67A4.81,4.81,0,0,0,1150.85,600Z" transform="translate(-708.37 -356.26)"/><path class="cls-2" d="M1166.55,624.47l.09-.05,3.68-2.41a.32.32,0,0,0,.1-.44.43.43,0,0,0-.1-.09L1166.5,619a.33.33,0,0,0-.45.1.32.32,0,0,0,.1.44l3.41,2.24-3.27,2.14a.31.31,0,0,0-.09.44.32.32,0,0,0,.35.14Z" transform="translate(-708.37 -356.26)"/><path class="cls-2" d="M1160.73,624.74a.33.33,0,0,0,.23-.39.28.28,0,0,0-.15-.2l-3.39-1.95,3.28-2.43a.32.32,0,0,0-.38-.52l-3.68,2.73a.32.32,0,0,0-.06.45.34.34,0,0,0,.09.08l3.82,2.19A.34.34,0,0,0,1160.73,624.74Z" transform="translate(-708.37 -356.26)"/><path class="cls-2" d="M1166.18,626.58l.09,0a.31.31,0,0,0,.1-.44h0l-5.22-8.58a.32.32,0,1,0-.54.33l5.22,8.59A.32.32,0,0,0,1166.18,626.58Z" transform="translate(-708.37 -356.26)"/><path class="cls-2" d="M894.42,597.44l.14.44h0l4.17,12.7,4.81,14.63,9,27.5.08,4.27h0l.68,34.36L911.48,696l2.1,7.64s-1-11.55-6.13-4.92c-2.93,3.77-6.36,7.62-9.17,11.24q6.15,2.47,12.49,4.49c.91.3,1.83.57,2.75.85l.59.18a171.14,171.14,0,0,0,43.11,6.93l2.22.05h.76l2.44,0c1.65,0,3.29,0,4.93-.08a171.18,171.18,0,0,0,35.9-4.85c-.08-4.86-.3-10.53-.62-16.59-.14-3-3.42-6.19-3.62-9.3-.14-2.34,2.81-4.54,2.65-6.91-1-14.61-2.23-9-3.15-19.34-.1-1-.18-2-.26-2.92-.59-6.64-1-10.8-1-10.8l3.92-24.75,6.17-38.87-.47-.78-.53-.27L974,571l-1.77-4.53a7,7,0,0,0-6.49-4.45l-21.44-.08a7,7,0,0,0-5.7,2.89l-5.8,8Z" transform="translate(-708.37 -356.26)"/><path class="cls-4" d="M917.53,646.6,912.67,657l-3.31,7.09-5.7,29.86-2.86,3-2.44-10.73-25.6,5.69c-.84-4.67-.23.15-.74-5a6.25,6.25,0,0,1,.45-.44c.41-.38.75-.74.74-1.08-.29-17.66.59-47.7,7.9-65.9a38.74,38.74,0,0,1,4.5-8.39c.15-.2.28-.39.42-.59,3.38-4.72,5.51-9.38,8.53-12.68h0l.05,0,0,0,20.76-11,.9,25,.63,18Z" transform="translate(-708.37 -356.26)"/><path class="cls-4" d="M992.4,649.55l6.06,13,2.12,4.51,5.7,29.86,2.85,3,2.45-10.73,1.15-.23,20.77-4.3,6.06,19.23a11.52,11.52,0,0,0-2.09-14.41c-.41-.37-.76-.74-.75-1.08.35-20.76-.92-58.68-12.39-74.28-3.65-5-5.83-9.89-9-13.33l0,0-7.74-12.67-.47-.78-.53-.27Z" transform="translate(-708.37 -356.26)"/><circle id="a657ec4b-47ce-4d2a-9c58-81a811696ca9" class="cls-6" cx="247.29" cy="171.01" r="28.52"/><path class="cls-5" d="M994.2,507.35a2.37,2.37,0,0,0-1.72-.76l.43-1.19a2.25,2.25,0,0,0-2.53-3l-1.56.3.14-1a2.26,2.26,0,0,0-1.91-2.57,2.31,2.31,0,0,0-1.11.12,2.41,2.41,0,0,1-2.08-.14,2.5,2.5,0,0,1-1.23-1.68l-.54-2.62-.06-.14c-2.65-4.42-7.74-7.63-14-8.81-5.54-1.05-11.23-.51-16.72,0-2.17.21-4.63.44-6.68,1.69a5.86,5.86,0,0,0-2.91,5.4c-5.41-1.66-11.21,1.65-14.08,5.82-3.41,5-4,11.19-4,16.05-.25,11.51,2.13,20.92,7,28,.35.51.44,1.58,1.15,1.94l-.14-.24c.79.4,1.6,1,1.3,1.72-.87,2,4.87,6.33,8.92,7.77,7.38,2.63,17.19,2.41,24.09,1.46l.24-1.63c2.49-.34,4.24-1,4.74-2,.87-.74,1.61-1.41,2.26-2h0l0,0c3.12-3,3.84-4.69,4.17-7.28a21,21,0,0,0-.81-7.45c12,1.86-4.73-12.77,6.45-15.6l.39-.1c.33-.07.65-.15,1-.24a17,17,0,0,0,4.3-1.84c3.12-1.9,4.15-4.42,5.76-7.26A2.19,2.19,0,0,0,994.2,507.35Z" transform="translate(-708.37 -356.26)"/><path class="cls-2" d="M1056.52,651.58c0,1.12,0,2.69-.07,4.63,0,.27,0,.54,0,.82-.08,3.57-.16,6.56-.3,9.88,0,.23,0,.45,0,.68-.18,4.64-.47,10-.95,18.58-.9,15.78-2.48,2.17-4.06,7.7-.08.28-.16.6-.24,1a18,18,0,0,1-1.2,4c-.84.5-1.7,1-2.55,1.46-2.43,1.35-4.89,2.65-7.38,3.88-1.39.69-2.79,1.37-4.2,2l-.66.31a173.14,173.14,0,0,1-22.24,8.48c-1.48.45-3,.88-4.46,1.29s-3.12.84-4.7,1.23a171.18,171.18,0,0,1-35.9,4.85c-1.63.06-3.28.07-4.93.07h-3.19l-2.23-.05a171.06,171.06,0,0,1-43.1-6.93l-.6-.18c-.92-.28-1.84-.55-2.75-.85q-6.35-2-12.49-4.49-4.69-1.89-9.28-4.06l-.08,0c-.64-.29-1.28-.6-1.92-.91l-.26-.14q-3.59-1.74-7.09-3.66c-2-4.51-4.73-5.37-6.44-9.34a16.81,16.81,0,0,1-1.08-3.67s0,0,0,0c.18,2.38-.76-4.22,0,0,0-.08,0-.16,0-.26s-.05-.51-.08-.86c-2.2-21.44-2.06-46-3-66.15-.07-1.3-.13-2.55-.2-3.75,0-.4,0-.79-.07-1.17a3.68,3.68,0,0,1,.15-.35.93.93,0,0,1,.05-.1l.06-.11,0-.07,0-.06c.06-.09.12-.19.19-.28l.09-.1.08-.09a.27.27,0,0,1,.07-.08l.08-.09a.12.12,0,0,1,0-.05,1.29,1.29,0,0,1,.17-.16,6.88,6.88,0,0,1,.73-.58l.27-.18a13,13,0,0,1,2-1l.75-.26.28-.09a3,3,0,0,1,.43-.12c.73-.22,1.52-.41,2.37-.58l.32-.06c.15,0,.31-.06.47-.09l.67-.11c1.9-.3,4.06-.53,6.44-.67l.67,0,.79,0,.69,0,.69,0,2,0c1.93,0,4,0,6.1,0l3,.09h.2l2.75.12,2,.1,1.88.12,1.49.1,1.26.09.58,0,1,.07,2.12.18,2.16.19,2.18.2.22,0,2,.21.47,0,1.94.21.59.07,1.52.16,2,.23,1.56.18,2.46.31.94.12c2.36.3,4.74.62,7.16,1,3.66.52,7.39,1.08,11.14,1.69s7.53,1.25,11.33,1.93l2.89.52,1.31.25,2.22.42,2.23.43,2.66.52c5.81,1.15,11.6,2.38,17.24,3.66l2.78.64,5.48,1.31c.5.11,1,.24,1.48.36,1.23.3,2.46.61,3.67.93l.21,0c.89.22,1.76.44,2.63.68,2.06.53,4.08,1.08,6.06,1.63,1.32.36,2.63.73,3.91,1.1q2.89.84,5.66,1.69l1.35.42,4,1.26c1,.33,2,.67,3,1l2.9,1,1.81.67,2.54,1,.76.29.47.19.9.36.89.36.86.36.85.37c.24.09.47.2.69.3l1.35.6.66.3.5.23.21.1.48.24c.38.17.74.36,1.1.53l1.39.73q.69.36,1.32.72l.21.11.29.16,1,.57c.61.37,1.2.75,1.74,1.12l.36.24c.4.29.79.57,1.14.86h0l.35.28.3.26c.33.28.64.56.92.84l.27.28a.94.94,0,0,1,.1.1c.13.13.24.25.35.38l.05.06q.22.27.42.54l.2.27a3.7,3.7,0,0,1,.21.33c.06.09.11.18.16.27a4.08,4.08,0,0,1,.35.73,3.16,3.16,0,0,1,.17.52A3,3,0,0,1,1056.52,651.58Z" transform="translate(-708.37 -356.26)"/><path class="cls-8" d="M1056.52,651.58c0,1.12,0,2.69-.07,4.63,0,.27,0,.54,0,.82-.07,2.72-.16,6.08-.3,9.88,0,.23,0,.45,0,.68-.18,4.64-.47,10-.95,18.58-.9,15.78-2.48,2.17-4.06,7.7-4.39-2.7-9.2-5.53-14.35-8.43-.93-.53-1.86-1.06-2.81-1.58-10.29-5.75-21.78-11.76-33.78-17.72l-1.43-.7c-27.49-13.59-57.49-26.81-81.8-35.63-4.69-1.7-9.17-3.23-13.38-4.59a149.46,149.46,0,0,0-22.44-5.67c-6.14-.9-10.39-.58-12.1,1.27-.07-1.3-.13-2.55-.2-3.75,0-.4,0-.79-.08-1.17a2.92,2.92,0,0,1,.14-.31.08.08,0,0,0,0,0,.93.93,0,0,1,.05-.1l.06-.11a.57.57,0,0,1,.08-.13c.06-.09.12-.19.19-.28l.17-.19a.27.27,0,0,1,.07-.08l.08-.09a.12.12,0,0,1,0-.05,1.29,1.29,0,0,1,.17-.16,6.88,6.88,0,0,1,.73-.58l.27-.18a13,13,0,0,1,2-1l.75-.26.28-.09a3,3,0,0,1,.43-.12c.73-.22,1.52-.41,2.37-.58l.79-.15.67-.11c1.9-.3,4.06-.53,6.44-.67l.67,0,.79,0,.69,0,.69,0,2,0c1.93,0,4,0,6.1,0,1,0,2,0,3,.1h.2l2.75.12,2,.1,1.88.12,1.49.1,1.26.09,1.53.11,2.12.18,2.16.19,2.18.2.22,0,2,.21q5.6.57,11.5,1.32c2.36.3,4.74.63,7.16,1,3.66.52,7.39,1.08,11.14,1.68s7.53,1.25,11.33,1.93l2.89.52,3.53.67,2.23.43,2.66.52c5.81,1.15,11.6,2.38,17.24,3.66l2.78.64,5.48,1.31,1.48.36,3.67.93h0l.21,0,2.63.68q3.09.81,6.06,1.63l3.91,1.1q2.89.86,5.66,1.69l1.35.42,4,1.26c1,.33,2,.67,3,1l2.9,1,1.81.66c.87.32,1.71.64,2.54,1l.76.29,1.37.55.89.36.86.36.85.37c.24.09.47.2.69.3l1.35.6.66.3.5.23.21.1,1.58.77,1.39.73c.54.28,1,.55,1.53.83l.29.16,1,.57c.61.37,1.2.75,1.74,1.12s1,.73,1.5,1.1h0l.65.54c.33.28.64.56.92.84l.27.28a.94.94,0,0,1,.1.1l.4.44q.22.27.42.54l.2.27a3.7,3.7,0,0,1,.21.33c.06.09.11.18.16.27a4.08,4.08,0,0,1,.35.73,3.16,3.16,0,0,1,.17.52A3,3,0,0,1,1056.52,651.58Z" transform="translate(-708.37 -356.26)"/><path class="cls-9" d="M811.49,506.25H895c2.33,0,4.23,1.08,4.23,2.42v62.21c0,1.34-1.9,2.43-4.23,2.43H811.49c-2.33,0-4.23-1.09-4.23-2.43V508.67C807.26,507.33,809.16,506.25,811.49,506.25Z" transform="translate(-708.37 -356.26)"/><rect class="cls-2" x="107.96" y="158.55" width="73.78" height="49.93" rx="7.69"/><ellipse class="cls-10" cx="144.85" cy="183.52" rx="19.97" ry="7.63"/><ellipse class="cls-11" cx="853.22" cy="539.78" rx="7.63" ry="19.97" transform="translate(-863.95 142.67) rotate(-30)"/><ellipse class="cls-12" cx="853.22" cy="539.78" rx="19.97" ry="7.63" transform="translate(-749.22 652.54) rotate(-60)"/><circle class="cls-7" cx="144.85" cy="183.52" r="3.72"/><ellipse class="cls-13" cx="360.13" cy="242.97" rx="3.77" ry="3.76"/><ellipse class="cls-14" cx="360.13" cy="242.97" rx="20.26" ry="7.71"/><ellipse class="cls-15" cx="1068.5" cy="599.23" rx="7.73" ry="20.21" transform="translate(-864.8 260.37) rotate(-30.1)"/><ellipse class="cls-15" cx="1068.5" cy="599.23" rx="20.21" ry="7.73" transform="translate(-694.14 866.89) rotate(-59.9)"/></svg>