<svg id="Layer_1" data-name="Layer 1" xmlns="http://www.w3.org/2000/svg" viewBox="0 0 296.02 374.81"><defs><style>.cls-1,.cls-6{fill:#fff;}.cls-1{stroke:#007ee9;stroke-width:8.78px;}.cls-1,.cls-3{stroke-miterlimit:10;}.cls-2{fill:#007ee9;}.cls-3,.cls-4,.cls-5{fill:none;stroke:#fff;}.cls-3{stroke-width:7.37px;}.cls-4{stroke-miterlimit:10;}.cls-4,.cls-5{stroke-width:7.37px;}.cls-5{stroke-miterlimit:10;}</style></defs><rect class="cls-1" x="4.39" y="4.39" width="287.24" height="366.03" rx="13.22"/><rect class="cls-2" x="32.76" y="28.32" width="230.55" height="156.02" rx="14.18"/><rect class="cls-2" x="32.76" y="251.87" width="230.55" height="13.68" rx="6.59"/><rect class="cls-2" x="32.76" y="287.79" width="176.01" height="13.68" rx="5.76"/><rect class="cls-2" x="32.76" y="323.75" width="97.18" height="13.68" rx="4.26"/><rect class="cls-2" x="33.22" y="210.56" width="132.23" height="13.68" rx="4.99"/><circle class="cls-2" cx="198.52" cy="217.24" r="6.36"/><circle class="cls-2" cx="217.83" cy="217.24" r="6.36"/><circle class="cls-2" cx="237.09" cy="217.24" r="6.36"/><ellipse class="cls-3" cx="146.55" cy="105.28" rx="62.41" ry="23.84"/><ellipse class="cls-4" cx="295.89" cy="164.1" rx="23.84" ry="62.41" transform="translate(-191.73 111.11) rotate(-30)"/><ellipse class="cls-5" cx="295.87" cy="164.12" rx="62.41" ry="23.84" transform="translate(-143.51 279.47) rotate(-60)"/><circle class="cls-6" cx="146.55" cy="105.28" r="11.62"/></svg>