<svg id="Layer_1" data-name="Layer 1" xmlns="http://www.w3.org/2000/svg" viewBox="0 0 443.52 369.22"><defs><style>.scls-1{fill:#0065bd;}.scls-2{fill:#224c70;}.scls-3{fill:#3f3d56;}.scls-4{fill:#ffb6b6;}.scls-5{fill:#1c3d5b;}.scls-6{fill:#a0616a;}.scls-7{fill:#e6e6e6;}.scls-8{fill:#2f2e41;}.scls-9{fill:#fff;}.scls-10{fill:#007ee9;}.scls-11,.scls-12,.scls-13,.scls-14{fill:none;}.scls-11{stroke:#0065bd;stroke-width:2.13px;}.scls-11,.scls-12{stroke-miterlimit:10;}.scls-12,.scls-13,.scls-14{stroke:#fff;}.scls-12{stroke-width:2.36px;}.scls-13{stroke-miterlimit:10;}.scls-13,.scls-14{stroke-width:2.36px;}.scls-14{stroke-miterlimit:10;}</style></defs><path class="scls-1" d="M849.24,639.21h318.33a13.89,13.89,0,0,0,13.88-13.88h0V441.25a13.54,13.54,0,0,0-.49-3.64,13.86,13.86,0,0,0-13.39-10.24H1043.23a38.66,38.66,0,0,0-5.23,16c-1.54,16.44,7.88,31.64,16.32,45.84s16.48,30.72,12,46.62c-3,10.73-11.2,18.49-21.36,23.14a59.93,59.93,0,0,1-31.1,4.74,97.75,97.75,0,0,1-18.73-4.27c-8-2.6-15.77-6-23.55-9.35h0l-.41-.18c-6-2.63-12-5.27-18.14-7.59a111.12,111.12,0,0,0-22.16-6.11c-11.51-1.8-23.12-1.15-33.39,4.07-16.74,8.51-25.72,26.89-32.74,44.31C857.64,602.19,851.29,620.4,849.24,639.21Z" transform="translate(-738.57 -355.06)"/><path class="scls-1" d="M739.21,568.79v56.53a13.89,13.89,0,0,0,13.88,13.89H806c.91-8.54.14-17-3.22-25-7.32-17.3-25-27.52-41.92-35.74C753.77,575.06,746.55,571.74,739.21,568.79Z" transform="translate(-738.57 -355.06)"/><path class="scls-2" d="M794.66,626.15h0A13.88,13.88,0,0,0,808.54,640h52.92c.91-8.53.15-17-3.21-25-1.72-4.06-5.75-8.57-11-13.12C826.71,584.1,794.66,598.93,794.66,626.15Z" transform="translate(-738.57 -355.06)"/><path class="scls-3" d="M738.57,625.32V441.25a14.53,14.53,0,0,1,14.52-14.52h414.48a14.53,14.53,0,0,1,14.52,14.52V625.32a14.55,14.55,0,0,1-14.52,14.53H753.09A14.54,14.54,0,0,1,738.57,625.32ZM753.09,428a13.25,13.25,0,0,0-13.24,13.24V625.32a13.26,13.26,0,0,0,13.24,13.25h414.48a13.26,13.26,0,0,0,13.24-13.25V441.25A13.25,13.25,0,0,0,1167.57,428Z" transform="translate(-738.57 -355.06)"/><path class="scls-2" d="M875.73,638.75h18.82c3.22-10.84,7.87-22.33,12.11-32.8,8.14-20.07,18.54-41.26,38-51.06a57.09,57.09,0,0,1,26.55-5.73c12.75.12,25.86,3.54,37.86,8.08,4.91,1.85,9.77,3.89,14.62,6,18.25,7.84,36.3,16.38,55.93,18.69,24.84,2.92,54-8.19,60.83-32.13,5.18-18.33-4.15-37.35-13.93-53.72s-20.71-33.88-18.92-52.83a1.5,1.5,0,0,1,0-.2c.68-6.8,4.74-11.69,10.42-14.83h-24.72c-.33,17.68,9.9,33.28,19.1,48.69,9.78,16.36,19.11,35.39,13.93,53.72-6.78,23.93-63-4.12-87.8-7.05-7-.82,4.13,2.1-2.56,0-10.49-3.29-11.65,26.88-21.86,22.45-6.35-2.76-12.71-5.5-19.16-7.94q-4-1.51-8.15-2.84h0c-18.52-5.87-38.77-8.15-55.89.33l-.35.17c-19.41,9.79-29.81,31-38,51C885.83,603.37,879,621.25,875.73,638.75Z" transform="translate(-738.57 -355.06)"/><path class="scls-1" d="M875.93,544.12H753.51a3.79,3.79,0,1,0,0,7.57H875.93a3.79,3.79,0,0,0,0-7.57Z" transform="translate(-738.57 -355.06)"/><path class="scls-1" d="M791.55,522.92h-38a3.78,3.78,0,0,0,0,7.56h38a3.78,3.78,0,0,0,0-7.56Z" transform="translate(-738.57 -355.06)"/><polygon class="scls-4" points="199.36 351.95 191.6 351.89 188.16 321.26 199.62 321.36 199.36 351.95"/><path class="scls-5" d="M913.07,719.35a3.48,3.48,0,0,0,3.44,3.5l15.43.13,2.7-5.47,1,5.5,5.82,0L940,703.44l-2-.14-8.26-.57-2.67-.17,0,5.55-12.4,8.4A3.47,3.47,0,0,0,913.07,719.35Z" transform="translate(-738.57 -355.06)"/><polygon class="scls-4" points="278.08 351.95 270.32 351.89 266.88 321.26 278.34 321.36 278.08 351.95"/><path class="scls-5" d="M991.79,719.35a3.48,3.48,0,0,0,3.44,3.5l15.43.13,2.7-5.47,1,5.5,5.82,0-1.47-19.62-2-.14-8.26-.57-2.67-.17,0,5.55-12.4,8.4A3.47,3.47,0,0,0,991.79,719.35Z" transform="translate(-738.57 -355.06)"/><path class="scls-4" d="M928.36,461.76l34.92-26.87a7.11,7.11,0,0,0,1.33-9.89h0a7.11,7.11,0,0,0-10-1.43l-.3.24-35.42,29-22.26,16.73a6.21,6.21,0,1,0,2.24,8.48,5.27,5.27,0,0,0,.47-1Z" transform="translate(-738.57 -355.06)"/><path class="scls-6" d="M956.82,467.94l-1.54,34.38,52.28,6.33c-4.12-13.82-10.86-33-7.77-42.62Z" transform="translate(-738.57 -355.06)"/><path class="scls-7" d="M986.53,404.92h-16.1l-6.92,11.83-3.29-.18c-6.42,2.48-9,5-12.53,11.86h0l-12.45,10.46,9.6,11.52c6.63-1.09,9-6.24,6.91-15.69,0,0-7.26,12.65,3.2,18.88,0,0-1.86,11.73,0,11.6s6.16-2.51,1.87-.12-3.56,2.49-3.42,3.26c2.32,12.79,4.24,22.39,4.24,22.39l45.44,4.48s-2.62-27.49-2.48-29-.81,2.26.14-1.56,2.39-2.39,1-3.82,9.84-2.67,5.44-9.55l14.72-3.84-8.23-19.55c0-6.61-10.6-12-17.2-12h-.85Z" transform="translate(-738.57 -355.06)"/><path class="scls-5" d="M1003.67,490c-17.78,6.12-33.78,4.78-47.31-7,0,0-3.81,14.08-7.67,12.16s-2,3.45-3,5.42.18,5.62-3.53,6.82-2.32,4.72-3.52,7.31a340.47,340.47,0,0,0-24.51,76.45c-6.67,33.49,9.6,89.6,9.6,89.6l15.36-1.28,3.84-73,17.56-30.84s8.63-5,3.21-7.58-1.78-5.7,2.16-5.08,8.43-19.86,8.43-19.86c-5.63,14.13,29.44,138.88,29.44,138.88l14.72-1.28-8.32-174.08Z" transform="translate(-738.57 -355.06)"/><path class="scls-5" d="M996.09,375.21c1.75,4.35,6.67,12.9,7.34,17.56l-.3-.29a21.08,21.08,0,0,1-2,2.78,13.47,13.47,0,0,0-4.59-3.16,16.18,16.18,0,0,1,1.61,6.21c-3.2,2.79-11.39,1.11-15.48,2.6-6.59,2.39-13.58,3.24-20.48,3.94-2.45.26-5.19.41-6.91-1s-.69-4.13-1.61-6.15c-6.58-14.45-.51-19.66,4.65-26.2,1.13-1.45,1.13-3.6,2.51-5,1.92-1.91,4.85-2.49,7.56-3a4.09,4.09,0,0,1-3.6-1.79,3.68,3.68,0,0,1,0-3.86,6.63,6.63,0,0,1,4.92-2.77,18.56,18.56,0,0,1,5.7.49,10.09,10.09,0,0,1,3.45,1.1,2.82,2.82,0,0,1,1.47,2.86,3.64,3.64,0,0,1-2.17,2.33,9.4,9.4,0,0,1-2.44.67,19.22,19.22,0,0,1,11.25,2A20.42,20.42,0,0,1,996.09,375.21Z" transform="translate(-738.57 -355.06)"/><circle class="scls-4" cx="234.02" cy="29" r="15.52"/><path class="scls-5" d="M987.52,375.75c-.9,2.72-3.47,3.59-5.85,4.14-.75.17-1.5.34-2.26.48-.28-.35-.58-.69-.89-1a13.65,13.65,0,0,0-4.6-3.16,16,16,0,0,1,1.48,4.88c-1.44.2-2.88.37-4.33.51a4.9,4.9,0,0,1-5.76-3.53c-1.32,2.16-2.88,4.19-5,5.05a6.06,6.06,0,0,1-6.92-2.07,14.59,14.59,0,0,1-2.5-5.68c-.61-2.41-1-5.18.24-6.71,1-1.24,2.6-1.26,4.12-1.15a48.88,48.88,0,0,1,9.9,1.8l.28.61c-.56-3.33.64-6.54,2.87-7.68a9.27,9.27,0,0,1,5.07-.48A23,23,0,0,1,980,363a12.68,12.68,0,0,1,6,4.79C987.52,370.17,988.29,373.4,987.52,375.75Z" transform="translate(-738.57 -355.06)"/><path class="scls-8" d="M965.4,361.25c.15-.05-.25,0-.11,0a.69.69,0,0,1-.2,0s-.17-.05-.06,0a1.26,1.26,0,0,1-.6-.39,5.16,5.16,0,0,1-.84-1.5,5.49,5.49,0,0,0-1.16-1.94,1.35,1.35,0,0,0-1.89,0,2,2,0,0,0-.24.33,3.15,3.15,0,0,0,.19,2.15,6.86,6.86,0,0,0,1,1.9,6.15,6.15,0,0,0,2.81,2.06,6.33,6.33,0,0,0,4,.11,1,1,0,0,0,0-1.77l-2.2-.9a1,1,0,0,0-.77,1.76l2.19.9,0-1.78a3.89,3.89,0,0,1-.84.15,3.48,3.48,0,0,1-.91,0A4.13,4.13,0,0,1,965,362a5.49,5.49,0,0,1-.51-.21l-.18-.1s-.25-.14-.14-.07a5.26,5.26,0,0,1-.79-.62,1.55,1.55,0,0,1-.24-.27,4.21,4.21,0,0,1-.35-.48,4.61,4.61,0,0,1-.51-1.13c0-.16-.1-.33-.14-.5a2.33,2.33,0,0,0,0-.28c-.08-.22,0,.13-.08.22l-.4.3a.51.51,0,0,1-.45-.07q-.07-.1,0,0l.22.33c.14.27.27.55.39.83a9.12,9.12,0,0,0,.91,1.72,3.09,3.09,0,0,0,3.38,1.3,1,1,0,0,0,.55-1.25A1,1,0,0,0,965.4,361.25Z" transform="translate(-738.57 -355.06)"/><circle class="scls-9" cx="202.63" cy="128.88" r="45.88"/><path class="scls-2" d="M941.2,530.47A46.52,46.52,0,1,1,987.72,484,46.52,46.52,0,0,1,941.2,530.47Zm0-91.76A45.24,45.24,0,1,0,986.44,484h0A45.29,45.29,0,0,0,941.2,438.71Z" transform="translate(-738.57 -355.06)"/><path class="scls-10" d="M934.94,507.82a5.07,5.07,0,0,1-4.08-2l-12.52-16.69A5.1,5.1,0,1,1,926.5,483h0l8.19,10.92,21-31.55a5.1,5.1,0,0,1,8.5,5.65h0l-25,37.55a5.09,5.09,0,0,1-4.11,2.27Z" transform="translate(-738.57 -355.06)"/><path class="scls-1" d="M890.66,723.52a.76.76,0,0,0,.76.76h162.11a.76.76,0,0,0,.76-.76.77.77,0,0,0-.76-.77H891.43a.77.77,0,0,0-.77.76Z" transform="translate(-738.57 -355.06)"/><path class="scls-4" d="M1034.19,485.52l-15-41.44a7.1,7.1,0,0,0-9-4.27h0a7.1,7.1,0,0,0-4.38,9.05c0,.12.08.23.13.35l16.9,42.56,9.17,26.3a6.21,6.21,0,1,0,8.77.44,5.72,5.72,0,0,0-.81-.75Z" transform="translate(-738.57 -355.06)"/><path class="scls-7" d="M1011.62,425.63l12.16,21.76s-28,9.6-28.09,8,1.39-23.77,1.39-23.77Z" transform="translate(-738.57 -355.06)"/><path class="scls-11" d="M757.47,442.22h83.45c2.34,0,4.23,1.08,4.23,2.42v62.21c0,1.34-1.89,2.42-4.23,2.42H757.47c-2.34,0-4.24-1.08-4.24-2.42V444.64C753.23,443.3,755.13,442.22,757.47,442.22Z" transform="translate(-738.57 -355.06)"/><rect class="scls-1" x="23.74" y="95.72" width="73.78" height="49.93" rx="7.69"/><ellipse class="scls-12" cx="60.62" cy="120.68" rx="19.97" ry="7.63"/><ellipse class="scls-13" cx="799.19" cy="475.74" rx="7.63" ry="19.97" transform="translate(-869.37 108.27) rotate(-30)"/><ellipse class="scls-14" cx="799.19" cy="475.74" rx="19.97" ry="7.63" transform="translate(-750.98 574.93) rotate(-60)"/><circle class="scls-9" cx="60.62" cy="120.68" r="3.72"/></svg>